#!OML:ASF I:\golf\golf\golf 2\Subject 1\2002-09-07\Subject1.ASF
:FULLY-SPECIFIED
:DEGREES
399
root -6.63348 18.1075 -3.70141 -166.498 -0.530232 -174.983
lowerback -8.51197 11.4596 14.414
upperback -11.2292 17.8114 2.01456
thorax -4.4244 9.25078 -4.30835
lowerneck -11.7671 -18.3687 -3.11167
upperneck 11.7245 -25.4052 4.16541
head 6.35711 -12.284 -0.660272
rclavicle -1.82087e-013 -1.22451e-013
rhumerus 86.5654 28.5243 -62.8415
rradius 63.2271
rwrist -9.20807
rhand -44.2453 37.113
rfingers 7.12502
rthumb -17.0573 7.84181
lclavicle -1.82087e-013 -1.22451e-013
lhumerus 58.9396 8.47438 33.9394
lradius 57.9653
lwrist 14.0437
lhand 151.062 197.725
lfingers 7.12502
lthumb -182.292 -132.308
rfemur 14.6145 -4.02295 22.649
rtibia 14.6587
rfoot 29.5676 -29.6613
rtoes 18.9215
lfemur -26.8593 -16.5918 -13.1797
ltibia 24.2505
lfoot 41.8484 -43.07
ltoes 53.7637
400
root -6.62735 18.1114 -3.67138 -166.455 -0.336151 -175.011
lowerback -8.36746 11.3817 14.3382
upperback -11.0782 17.6372 2.02995
thorax -4.36898 9.14761 -4.29161
lowerneck -12.113 -18.1487 -2.95848
upperneck 11.7623 -25.1033 4.13981
head 6.39339 -12.1203 -0.684102
rclavicle -3.77691e-014 -7.79236e-014
rhumerus 85.7751 28.487 -63.1322
rradius 62.9502
rwrist -9.4591
rhand -43.9815 37.5289
rfingers 7.12502
rthumb -16.8034 8.23604
lclavicle -3.77691e-014 -7.79236e-014
lhumerus 59.2459 7.65526 34.2014
lradius 57.3481
lwrist 14.1403
lhand 151.511 197.64
lfingers 7.12502
lthumb -181.858 -132.389
rfemur 14.38 -4.12308 22.4814
rtibia 14.9331
rfoot 30.1157 -28.6334
rtoes 17.6966
lfemur -26.9246 -16.4574 -13.1824
ltibia 24.1282
lfoot 41.7651 -43.0835
ltoes 53.6458
401
root -6.61784 18.1135 -3.64298 -166.493 -0.209248 -174.924
lowerback -8.27055 11.2682 14.3188
upperback -10.8813 17.4109 2.13921
thorax -4.26444 9.02598 -4.19824
lowerneck -12.388 -17.8955 -2.77859
upperneck 11.7898 -24.7469 4.03505
head 6.40017 -11.9381 -0.717484
rclavicle -1.70955e-013 -5.08889e-014
rhumerus 85.0532 28.5097 -63.3944
rradius 62.665
rwrist -9.60608
rhand -43.9738 37.4043
rfingers 7.12502
rthumb -16.796 8.11079
lclavicle -1.70955e-013 -5.08889e-014
lhumerus 59.3698 6.82751 34.5044
lradius 56.9018
lwrist 14.4166
lhand 151.683 197.788
lfingers 7.12502
lthumb -181.692 -132.239
rfemur 14.2655 -4.19714 22.488
rtibia 15.1211
rfoot 30.3894 -28.1034
rtoes 17.4031
lfemur -26.9069 -16.3002 -13.0558
ltibia 24.0348
lfoot 41.6675 -43.2332
ltoes 53.511
402
root -6.60909 18.1155 -3.61903 -166.532 0.0159729 -174.729
lowerback -8.19525 11.1963 14.4036
upperback -10.6594 17.2358 2.2894
thorax -4.10374 8.93183 -4.09392
lowerneck -12.6811 -17.6822 -2.49385
upperneck 11.8076 -24.4307 3.77527
head 6.3756 -11.7829 -0.807753
rclavicle -1.34378e-013 -5.725e-014
rhumerus 84.4251 28.5464 -63.6298
rradius 62.3101
rwrist -9.67513
rhand -43.7925 37.3182
rfingers 7.12502
rthumb -16.6214 8.00993
lclavicle -1.34378e-013 -5.725e-014
lhumerus 59.5411 5.95678 34.8982
lradius 56.4399
lwrist 14.6945
lhand 151.336 197.989
lfingers 7.12502
lthumb -182.027 -132.041
rfemur 14.1601 -4.03615 22.6182
rtibia 15.3097
rfoot 30.0832 -28.2406
rtoes 18.2347
lfemur -26.8577 -16.1867 -12.8043
ltibia 23.9362
lfoot 41.3571 -43.2699
ltoes 53.3186
403
root -6.60163 18.1194 -3.59866 -166.609 0.359252 -174.651
lowerback -8.00201 11.1427 14.3735
upperback -10.4564 17.1013 2.39416
thorax -4.02966 8.85093 -4.00697
lowerneck -12.9557 -17.5047 -2.21908
upperneck 11.7397 -24.1561 3.52882
head 6.3258 -11.65 -0.891626
rclavicle 1.25632e-013 9.54166e-014
rhumerus 83.7245 28.5211 -63.8246
rradius 62.0079
rwrist -9.85891
rhand -43.7331 37.5394
rfingers 7.12502
rthumb -16.5643 8.22635
lclavicle 1.25632e-013 9.54166e-014
lhumerus 59.7767 5.01537 35.4157
lradius 55.9792
lwrist 14.8728
lhand 151.021 198.014
lfingers 7.12502
lthumb -182.332 -132.019
rfemur 14.0877 -3.7826 22.5835
rtibia 15.5163
rfoot 29.5285 -28.154
rtoes 18.6891
lfemur -26.7222 -16.1209 -12.704
ltibia 23.8152
lfoot 40.7935 -43.2779
ltoes 53.02
